<?xml version="1.0" encoding="utf-8"?>
<!-- Generator: Adobe Illustrator 26.5.0, SVG Export Plug-In . SVG Version: 6.00 Build 0)  -->
<svg version="1.1" id="Livello_1" xmlns="http://www.w3.org/2000/svg" xmlns:xlink="http://www.w3.org/1999/xlink" x="0px" y="0px"
	 viewBox="0 0 377.21 96.29" style="enable-background:new 0 0 377.21 96.29;" xml:space="preserve">
<style type="text/css">
	.st0{fill:#000F9F;}
	.st1{fill:#BFB2B6;}
	.st2{fill:#000F9F;stroke:#FFFFFF;stroke-width:0.3289;stroke-miterlimit:10;}
	.st3{fill:#8AB7E9;stroke:#FFFFFF;stroke-width:0.3289;stroke-miterlimit:10;}
	.st4{fill:#5887DA;stroke:#FFFFFF;stroke-width:0.3289;stroke-miterlimit:10;}
</style>
<g>
	<path class="st0" d="M89.02,10.07h5.21v37.98h-5.21V10.07z"/>
	<path class="st0" d="M103.12,40.46V17.67c0-5.15,2.44-7.6,7.6-7.6h11.72c5.16,0,7.6,2.44,7.6,7.6v4.83h-5.21v-4.67
		c0-2.17-0.81-2.98-2.98-2.98h-10.58c-2.12,0-2.93,0.81-2.93,2.98v22.46c0,2.17,0.81,2.98,2.93,2.98h10.58
		c2.17,0,2.98-0.81,2.98-2.98v-4.67h5.21v4.83c0,4.99-2.44,7.6-7.6,7.6h-11.72C105.57,48.05,103.12,45.45,103.12,40.46z"/>
	<path class="st0" d="M136.82,40.46v-4.18h5.1v4.23c0,2.12,0.81,2.93,2.98,2.93h10.53c2.17,0,2.98-0.81,2.98-2.93v-4.56
		c0-2.33-0.98-3.04-3.26-3.58l-10.42-2.33c-4.45-0.98-7.81-2.33-7.81-7.76v-4.61c0-5.15,2.44-7.6,7.6-7.6h10.91
		c5.16,0,7.6,2.44,7.6,7.6v3.74h-5.15v-3.8c0-2.12-0.81-2.93-2.93-2.93h-9.88c-2.12,0-2.93,0.81-2.93,2.93v3.96
		c0,2.33,0.98,3.04,3.2,3.53l10.47,2.39c4.39,0.98,7.81,2.33,7.81,7.76v5.21c0,5.15-2.44,7.6-7.6,7.6h-11.61
		C139.26,48.05,136.82,45.61,136.82,40.46z"/>
	<path class="st1" d="M171.06,40.46V17.67c0-5.15,2.44-7.6,7.6-7.6h11.72c5.15,0,7.6,2.44,7.6,7.6v4.83h-5.21v-4.67
		c0-2.17-0.81-2.98-2.98-2.98H179.2c-2.12,0-2.93,0.81-2.93,2.98v22.46c0,2.17,0.81,2.98,2.93,2.98h10.58
		c2.17,0,2.98-0.81,2.98-2.98v-4.67h5.21v4.83c0,4.99-2.44,7.6-7.6,7.6h-11.72C173.5,48.05,171.06,45.45,171.06,40.46z"/>
</g>
<g>
	<path class="st0" d="M98.32,57.37h-1.11l-0.3-1.64c-0.25-0.25-0.57-0.45-0.94-0.61c-0.37-0.16-0.82-0.24-1.33-0.24
		c-1.21,0-2.14,0.44-2.79,1.31s-0.97,1.99-0.97,3.33v0.18c0,1.35,0.32,2.46,0.95,3.34c0.63,0.88,1.52,1.32,2.64,1.32
		c0.53,0,1.01-0.08,1.44-0.25c0.43-0.17,0.76-0.37,1-0.61l0.3-1.64h1.11v2.07c-0.33,0.43-0.84,0.82-1.51,1.15
		c-0.67,0.34-1.45,0.51-2.33,0.51c-1.51,0-2.75-0.56-3.72-1.68c-0.97-1.12-1.45-2.52-1.45-4.21v-0.17c0-1.7,0.48-3.11,1.43-4.23
		c0.95-1.11,2.2-1.67,3.74-1.67c0.88,0,1.66,0.17,2.33,0.51c0.67,0.34,1.17,0.73,1.51,1.15V57.37z"/>
	<path class="st0" d="M103.94,65.58c-1.2,0-2.16-0.4-2.87-1.2c-0.71-0.8-1.07-1.84-1.07-3.12v-0.35c0-1.23,0.37-2.25,1.1-3.07
		c0.73-0.82,1.6-1.23,2.6-1.23c1.16,0,2.04,0.35,2.64,1.05c0.6,0.7,0.9,1.64,0.9,2.81v0.98h-5.6l-0.02,0.04
		c0.02,0.83,0.22,1.51,0.63,2.05c0.4,0.53,0.97,0.8,1.7,0.8c0.53,0,1-0.08,1.4-0.23s0.75-0.36,1.04-0.63l0.61,1.02
		c-0.31,0.3-0.72,0.55-1.22,0.75S104.65,65.58,103.94,65.58z M103.7,57.86c-0.53,0-0.98,0.22-1.35,0.67c-0.37,0.44-0.6,1-0.69,1.67
		l0.02,0.04h3.98v-0.21c0-0.62-0.16-1.13-0.49-1.55C104.84,58.07,104.35,57.86,103.7,57.86z"/>
	<path class="st0" d="M108.55,64.41l1.3-0.22v-6.17l-1.3-0.22v-1.01h2.71l0.11,1.28c0.29-0.46,0.65-0.81,1.08-1.06
		c0.43-0.25,0.93-0.38,1.48-0.38c0.93,0,1.65,0.27,2.16,0.82c0.51,0.55,0.77,1.39,0.77,2.53v4.22l1.3,0.22v1.01h-4.17v-1.01
		l1.3-0.22V60c0-0.76-0.15-1.3-0.45-1.62s-0.76-0.48-1.38-0.48c-0.45,0-0.85,0.11-1.2,0.33c-0.35,0.22-0.63,0.52-0.83,0.89v5.07
		l1.3,0.22v1.01h-4.17V64.41z"/>
	<path class="st0" d="M122.04,54.7v2.08h1.64v1.17h-1.64v5.24c0,0.4,0.08,0.69,0.25,0.85c0.17,0.17,0.39,0.25,0.67,0.25
		c0.14,0,0.29-0.01,0.47-0.04c0.17-0.02,0.32-0.05,0.44-0.08l0.21,1.08c-0.15,0.1-0.37,0.17-0.65,0.24
		c-0.29,0.06-0.57,0.09-0.86,0.09c-0.64,0-1.15-0.19-1.52-0.58c-0.38-0.39-0.57-0.99-0.57-1.82v-5.24h-1.37v-1.17h1.37V54.7H122.04z
		"/>
	<path class="st0" d="M125.28,57.8v-1.01h2.71l0.15,1.25c0.24-0.44,0.55-0.79,0.91-1.04c0.36-0.25,0.77-0.38,1.23-0.38
		c0.12,0,0.25,0.01,0.38,0.03s0.23,0.04,0.3,0.06l-0.21,1.46l-0.89-0.05c-0.41,0-0.76,0.1-1.04,0.29c-0.28,0.19-0.5,0.47-0.65,0.82
		v4.96l1.3,0.22v1.01h-4.17v-1.01l1.3-0.22v-6.17L125.28,57.8z"/>
	<path class="st0" d="M131.89,61.02c0-1.28,0.35-2.33,1.04-3.16s1.63-1.24,2.82-1.24c1.19,0,2.13,0.41,2.83,1.24
		c0.69,0.82,1.04,1.88,1.04,3.16v0.18c0,1.29-0.35,2.34-1.04,3.16c-0.69,0.82-1.63,1.23-2.82,1.23c-1.2,0-2.14-0.41-2.83-1.23
		c-0.69-0.82-1.04-1.87-1.04-3.16V61.02z M133.46,61.2c0,0.92,0.19,1.67,0.58,2.27c0.39,0.6,0.96,0.89,1.72,0.89
		c0.74,0,1.31-0.3,1.7-0.89s0.58-1.35,0.58-2.27v-0.18c0-0.9-0.19-1.66-0.58-2.26c-0.39-0.6-0.96-0.9-1.72-0.9s-1.33,0.3-1.71,0.9
		c-0.38,0.6-0.57,1.35-0.57,2.26V61.2z"/>
	<path class="st0" d="M156.35,53.8v1.01l-1.3,0.22v10.38h-1.57l-5.59-8.97l-0.05,0.02v7.72l1.3,0.22v1.01h-4.17v-1.01l1.3-0.22
		v-9.15l-1.3-0.22V53.8h1.3h1.57l5.59,8.96l0.05-0.02v-7.71l-1.3-0.22V53.8h2.87H156.35z"/>
	<path class="st0" d="M163.19,65.42c-0.05-0.23-0.09-0.44-0.11-0.63s-0.05-0.37-0.06-0.56c-0.3,0.39-0.68,0.71-1.14,0.97
		c-0.46,0.26-0.94,0.39-1.46,0.39c-0.9,0-1.58-0.22-2.05-0.66c-0.47-0.44-0.7-1.06-0.7-1.85c0-0.82,0.33-1.45,0.99-1.9
		c0.66-0.44,1.57-0.67,2.73-0.67h1.62V59.5c0-0.5-0.16-0.91-0.48-1.2c-0.32-0.3-0.76-0.44-1.33-0.44c-0.39,0-0.74,0.05-1.04,0.15
		c-0.3,0.1-0.54,0.24-0.73,0.42l-0.17,0.91h-1.21v-1.68c0.39-0.31,0.87-0.57,1.43-0.75s1.17-0.28,1.82-0.28
		c0.98,0,1.77,0.25,2.38,0.75c0.61,0.5,0.91,1.22,0.91,2.15v4.16c0,0.11,0,0.22,0,0.33c0,0.11,0.01,0.21,0.02,0.32l0.64,0.09v1.01
		H163.19z M160.66,64.27c0.52,0,1-0.12,1.43-0.38c0.43-0.25,0.74-0.55,0.93-0.9v-1.42h-1.68c-0.64,0-1.15,0.15-1.53,0.45
		s-0.56,0.66-0.56,1.09c0,0.38,0.12,0.67,0.35,0.87S160.19,64.27,160.66,64.27z"/>
	<path class="st0" d="M168.61,64.19h3.53l0.13-1.33h1.33v2.56h-6.85v-1.1l4.67-6.29h-3.16l-0.12,1.32h-1.34v-2.57h6.54v1.07
		L168.61,64.19z"/>
	<path class="st0" d="M175.21,64.41l1.3-0.22v-6.17l-1.3-0.22v-1.01h2.87v7.41l1.3,0.22v1.01h-4.17V64.41z M178.08,54.57h-1.57v-1.6
		h1.57V54.57z"/>
	<path class="st0" d="M180.59,61.02c0-1.28,0.35-2.33,1.04-3.16s1.63-1.24,2.82-1.24c1.19,0,2.13,0.41,2.83,1.24
		c0.69,0.82,1.04,1.88,1.04,3.16v0.18c0,1.29-0.35,2.34-1.04,3.16c-0.69,0.82-1.63,1.23-2.82,1.23c-1.2,0-2.14-0.41-2.83-1.23
		c-0.69-0.82-1.04-1.87-1.04-3.16V61.02z M182.16,61.2c0,0.92,0.19,1.67,0.58,2.27s0.96,0.89,1.72,0.89c0.75,0,1.31-0.3,1.7-0.89
		c0.39-0.6,0.58-1.35,0.58-2.27v-0.18c0-0.9-0.19-1.66-0.58-2.26c-0.39-0.6-0.96-0.9-1.72-0.9c-0.75,0-1.32,0.3-1.71,0.9
		c-0.38,0.6-0.57,1.35-0.57,2.26V61.2z"/>
	<path class="st0" d="M189.52,64.41l1.3-0.22v-6.17l-1.3-0.22v-1.01h2.71l0.11,1.28c0.29-0.46,0.65-0.81,1.08-1.06
		c0.43-0.25,0.93-0.38,1.48-0.38c0.93,0,1.65,0.27,2.16,0.82c0.51,0.55,0.77,1.39,0.77,2.53v4.22l1.3,0.22v1.01h-4.17v-1.01
		l1.3-0.22V60c0-0.76-0.15-1.3-0.45-1.62s-0.76-0.48-1.38-0.48c-0.45,0-0.85,0.11-1.2,0.33c-0.35,0.22-0.63,0.52-0.83,0.89v5.07
		l1.3,0.22v1.01h-4.17V64.41z"/>
	<path class="st0" d="M205.9,65.42c-0.05-0.23-0.08-0.44-0.11-0.63c-0.03-0.19-0.04-0.37-0.06-0.56c-0.3,0.39-0.68,0.71-1.14,0.97
		c-0.45,0.26-0.94,0.39-1.46,0.39c-0.9,0-1.58-0.22-2.05-0.66c-0.47-0.44-0.7-1.06-0.7-1.85c0-0.82,0.33-1.45,0.99-1.9
		s1.57-0.67,2.72-0.67h1.62V59.5c0-0.5-0.16-0.91-0.48-1.2c-0.32-0.3-0.76-0.44-1.33-0.44c-0.39,0-0.74,0.05-1.04,0.15
		c-0.3,0.1-0.54,0.24-0.73,0.42l-0.17,0.91h-1.21v-1.68c0.39-0.31,0.87-0.57,1.43-0.75s1.17-0.28,1.82-0.28
		c0.98,0,1.77,0.25,2.38,0.75c0.61,0.5,0.91,1.22,0.91,2.15v4.16c0,0.11,0,0.22,0,0.33c0,0.11,0.01,0.21,0.02,0.32l0.64,0.09v1.01
		H205.9z M203.37,64.27c0.52,0,1-0.12,1.43-0.38c0.43-0.25,0.74-0.55,0.92-0.9v-1.42h-1.67c-0.64,0-1.15,0.15-1.53,0.45
		s-0.56,0.66-0.56,1.09c0,0.38,0.12,0.67,0.35,0.87C202.54,64.17,202.9,64.27,203.37,64.27z"/>
	<path class="st0" d="M209.05,53.98v-1.01h2.87v11.22l1.3,0.22v1.01h-4.17v-1.01l1.3-0.22v-9.98L209.05,53.98z"/>
	<path class="st0" d="M218.36,65.58c-1.2,0-2.16-0.4-2.87-1.2c-0.71-0.8-1.06-1.84-1.06-3.12v-0.35c0-1.23,0.37-2.25,1.1-3.07
		s1.6-1.23,2.6-1.23c1.16,0,2.04,0.35,2.64,1.05s0.9,1.64,0.9,2.81v0.98h-5.6l-0.02,0.04c0.02,0.83,0.23,1.51,0.63,2.05
		c0.4,0.53,0.97,0.8,1.7,0.8c0.53,0,1-0.08,1.4-0.23c0.4-0.15,0.75-0.36,1.04-0.63l0.61,1.02c-0.31,0.3-0.72,0.55-1.22,0.75
		C219.68,65.48,219.07,65.58,218.36,65.58z M218.12,57.86c-0.53,0-0.98,0.22-1.35,0.67c-0.37,0.44-0.6,1-0.69,1.67l0.02,0.04h3.98
		v-0.21c0-0.62-0.16-1.13-0.49-1.55C219.25,58.07,218.76,57.86,218.12,57.86z"/>
	<path class="st0" d="M233.08,64.39c-0.28,0.39-0.63,0.69-1.03,0.89c-0.41,0.2-0.88,0.3-1.42,0.3c-1.05,0-1.88-0.38-2.47-1.15
		c-0.59-0.76-0.89-1.77-0.89-3.01v-0.17c0-1.39,0.3-2.51,0.89-3.36s1.42-1.28,2.49-1.28c0.51,0,0.96,0.09,1.35,0.28
		s0.72,0.46,1,0.82v-3.52l-1.3-0.22v-1.01h1.3h1.57v11.22l1.3,0.22v1.01h-2.67L233.08,64.39z M228.84,61.43
		c0,0.87,0.18,1.56,0.54,2.09c0.36,0.53,0.91,0.79,1.65,0.79c0.47,0,0.86-0.11,1.18-0.32c0.32-0.21,0.58-0.51,0.79-0.9v-4.01
		c-0.2-0.36-0.47-0.65-0.79-0.86c-0.33-0.21-0.71-0.32-1.17-0.32c-0.75,0-1.3,0.31-1.66,0.93c-0.36,0.62-0.54,1.43-0.54,2.43V61.43z
		"/>
	<path class="st0" d="M237.07,64.41l1.3-0.22v-6.17l-1.3-0.22v-1.01h2.87v7.41l1.3,0.22v1.01h-4.17V64.41z M239.94,54.57h-1.57v-1.6
		h1.57V54.57z"/>
	<path class="st0" d="M251.45,53.81c1.27,0,2.24,0.28,2.91,0.84c0.67,0.56,1.01,1.36,1.01,2.39c0,0.56-0.16,1.06-0.47,1.5
		s-0.76,0.78-1.35,1.03c0.63,0.21,1.09,0.54,1.37,1.01c0.28,0.47,0.42,1.05,0.42,1.73v0.93c0,0.36,0.04,0.62,0.14,0.79
		c0.09,0.17,0.24,0.27,0.45,0.3l0.38,0.05v1.03h-0.85c-0.61,0-1.05-0.21-1.3-0.64c-0.26-0.43-0.39-0.94-0.39-1.55v-0.9
		c0-0.63-0.18-1.14-0.55-1.52s-0.86-0.57-1.48-0.57h-2.52v3.96l1.3,0.22v1.01h-4.17v-1.01l1.3-0.22v-9.15l-1.3-0.22v-1.01h1.3
		H251.45z M249.23,58.99h2.07c0.88,0,1.52-0.17,1.91-0.5c0.4-0.34,0.6-0.82,0.6-1.47c0-0.61-0.19-1.1-0.58-1.45
		c-0.38-0.36-0.98-0.53-1.78-0.53h-2.23V58.99z"/>
	<path class="st0" d="M257.56,64.41l1.3-0.22v-6.17l-1.3-0.22v-1.01h2.87v7.41l1.3,0.22v1.01h-4.17V64.41z M260.43,54.57h-1.57v-1.6
		h1.57V54.57z"/>
	<path class="st0" d="M266.81,64.36c0.52,0,0.98-0.16,1.38-0.48s0.59-0.72,0.59-1.19h1.41l0.02,0.05c0.03,0.74-0.3,1.41-0.99,1.98
		s-1.49,0.87-2.41,0.87c-1.26,0-2.21-0.41-2.88-1.23c-0.66-0.82-0.99-1.85-0.99-3.09v-0.33c0-1.23,0.33-2.25,1-3.08
		c0.67-0.82,1.62-1.23,2.87-1.23c0.69,0,1.31,0.11,1.86,0.34s1.01,0.54,1.37,0.94l0.07,1.92h-1.25l-0.34-1.36
		c-0.19-0.18-0.43-0.33-0.72-0.44c-0.29-0.11-0.62-0.17-0.99-0.17c-0.82,0-1.41,0.3-1.77,0.89c-0.35,0.59-0.53,1.32-0.53,2.18v0.33
		c0,0.88,0.18,1.62,0.53,2.21C265.39,64.06,265.98,64.36,266.81,64.36z"/>
	<path class="st0" d="M275.68,65.58c-1.2,0-2.16-0.4-2.87-1.2c-0.71-0.8-1.06-1.84-1.06-3.12v-0.35c0-1.23,0.37-2.25,1.1-3.07
		c0.73-0.82,1.6-1.23,2.6-1.23c1.16,0,2.04,0.35,2.64,1.05c0.6,0.7,0.9,1.64,0.9,2.81v0.98h-5.6l-0.02,0.04
		c0.02,0.83,0.23,1.51,0.63,2.05s0.97,0.8,1.7,0.8c0.53,0,1-0.08,1.4-0.23c0.4-0.15,0.75-0.36,1.04-0.63l0.62,1.02
		c-0.31,0.3-0.72,0.55-1.22,0.75C277,65.48,276.39,65.58,275.68,65.58z M275.44,57.86c-0.53,0-0.98,0.22-1.35,0.67
		c-0.37,0.44-0.6,1-0.69,1.67l0.02,0.04h3.98v-0.21c0-0.62-0.17-1.13-0.5-1.55C276.58,58.07,276.09,57.86,275.44,57.86z"/>
	<path class="st0" d="M280.52,57.8v-1.01h2.71l0.15,1.25c0.24-0.44,0.55-0.79,0.91-1.04c0.36-0.25,0.77-0.38,1.23-0.38
		c0.12,0,0.25,0.01,0.38,0.03c0.13,0.02,0.23,0.04,0.3,0.06l-0.21,1.46l-0.89-0.05c-0.41,0-0.76,0.1-1.04,0.29
		c-0.28,0.19-0.5,0.47-0.65,0.82v4.96l1.3,0.22v1.01h-4.17v-1.01l1.3-0.22v-6.17L280.52,57.8z"/>
	<path class="st0" d="M291.01,64.36c0.52,0,0.98-0.16,1.38-0.48s0.59-0.72,0.59-1.19h1.41l0.02,0.05c0.03,0.74-0.3,1.41-0.99,1.98
		c-0.69,0.58-1.49,0.87-2.41,0.87c-1.26,0-2.21-0.41-2.88-1.23c-0.66-0.82-0.99-1.85-0.99-3.09v-0.33c0-1.23,0.33-2.25,1-3.08
		c0.66-0.82,1.62-1.23,2.87-1.23c0.69,0,1.31,0.11,1.86,0.34c0.55,0.23,1.01,0.54,1.37,0.94l0.07,1.92h-1.25l-0.34-1.36
		c-0.19-0.18-0.43-0.33-0.72-0.44s-0.62-0.17-0.99-0.17c-0.83,0-1.41,0.3-1.77,0.89c-0.35,0.59-0.53,1.32-0.53,2.18v0.33
		c0,0.88,0.18,1.62,0.53,2.21C289.59,64.06,290.18,64.36,291.01,64.36z"/>
	<path class="st0" d="M301.57,65.42c-0.05-0.23-0.09-0.44-0.11-0.63s-0.05-0.37-0.06-0.56c-0.3,0.39-0.68,0.71-1.14,0.97
		c-0.46,0.26-0.94,0.39-1.46,0.39c-0.9,0-1.58-0.22-2.05-0.66c-0.47-0.44-0.7-1.06-0.7-1.85c0-0.82,0.33-1.45,0.99-1.9
		c0.66-0.44,1.57-0.67,2.73-0.67h1.62V59.5c0-0.5-0.16-0.91-0.48-1.2c-0.32-0.3-0.76-0.44-1.33-0.44c-0.39,0-0.74,0.05-1.04,0.15
		c-0.3,0.1-0.54,0.24-0.73,0.42l-0.17,0.91h-1.21v-1.68c0.39-0.31,0.87-0.57,1.43-0.75s1.17-0.28,1.82-0.28
		c0.98,0,1.77,0.25,2.38,0.75c0.61,0.5,0.91,1.22,0.91,2.15v4.16c0,0.11,0,0.22,0,0.33c0,0.11,0.01,0.21,0.02,0.32l0.64,0.09v1.01
		H301.57z M299.04,64.27c0.52,0,1-0.12,1.43-0.38c0.43-0.25,0.74-0.55,0.93-0.9v-1.42h-1.68c-0.64,0-1.15,0.15-1.53,0.45
		s-0.56,0.66-0.56,1.09c0,0.38,0.12,0.67,0.35,0.87S298.57,64.27,299.04,64.27z"/>
	<path class="st0" d="M309,64.41l1.3-0.22v-6.17L309,57.8v-1.01h2.87v7.41l1.3,0.22v1.01H309V64.41z M311.88,54.57h-1.57v-1.6h1.57
		V54.57z"/>
	<path class="st0" d="M314.14,64.41l1.3-0.22v-6.17l-1.3-0.22v-1.01h2.7l0.11,1.28c0.29-0.46,0.65-0.81,1.08-1.06
		c0.43-0.25,0.93-0.38,1.48-0.38c0.93,0,1.65,0.27,2.16,0.82c0.51,0.55,0.77,1.39,0.77,2.53v4.22l1.3,0.22v1.01h-4.17v-1.01
		l1.3-0.22V60c0-0.76-0.15-1.3-0.45-1.62s-0.76-0.48-1.38-0.48c-0.45,0-0.85,0.11-1.2,0.33c-0.35,0.22-0.63,0.52-0.83,0.89v5.07
		l1.3,0.22v1.01h-4.17V64.41z"/>
	<path class="st0" d="M328.81,54.81V53.8h4.17v1.01l-1.3,0.22v4.01h5.63v-4.01l-1.3-0.22V53.8h1.3h1.57h1.3v1.01l-1.3,0.22v9.15
		l1.3,0.22v1.01h-4.17v-1.01l1.3-0.22v-3.9h-5.63v3.9l1.3,0.22v1.01h-4.17v-1.01l1.3-0.22v-9.15L328.81,54.81z"/>
	<path class="st0" d="M346.7,53.8c1.24,0,2.2,0.32,2.89,0.96s1.03,1.48,1.03,2.52c0,1.05-0.34,1.9-1.03,2.53
		c-0.69,0.63-1.65,0.95-2.89,0.95h-2.46v3.43l1.3,0.22v1.01h-4.17v-1.01l1.3-0.22v-9.15l-1.3-0.22V53.8h1.3H346.7z M344.23,59.53
		h2.46c0.79,0,1.38-0.21,1.77-0.63s0.59-0.96,0.59-1.6s-0.2-1.18-0.59-1.61c-0.39-0.43-0.98-0.65-1.77-0.65h-2.46V59.53z"/>
	<path class="st0" d="M360.75,57.37h-1.11l-0.29-1.64c-0.26-0.25-0.57-0.45-0.94-0.61c-0.37-0.16-0.82-0.24-1.33-0.24
		c-1.21,0-2.13,0.44-2.78,1.31c-0.65,0.88-0.97,1.99-0.97,3.33v0.18c0,1.35,0.32,2.46,0.95,3.34c0.64,0.88,1.52,1.32,2.65,1.32
		c0.53,0,1.01-0.08,1.44-0.25c0.43-0.17,0.76-0.37,1-0.61l0.29-1.64h1.11v2.07c-0.34,0.43-0.84,0.82-1.51,1.15s-1.45,0.51-2.33,0.51
		c-1.51,0-2.75-0.56-3.72-1.68c-0.97-1.12-1.45-2.52-1.45-4.21v-0.17c0-1.7,0.48-3.11,1.43-4.23c0.95-1.11,2.2-1.67,3.74-1.67
		c0.88,0,1.66,0.17,2.33,0.51s1.17,0.73,1.51,1.15V57.37z"/>
	<path class="st0" d="M364.23,64.84c0,0.52-0.13,1.07-0.39,1.64c-0.26,0.57-0.61,1.04-1.05,1.42l-0.89-0.59
		c0.25-0.38,0.44-0.77,0.57-1.17c0.13-0.4,0.19-0.82,0.19-1.27v-1.21h1.57V64.84z"/>
	<path class="st0" d="M94.4,73.41c1.21,0,2.16,0.26,2.84,0.79c0.68,0.52,1.03,1.31,1.03,2.36c0,0.52-0.16,0.98-0.49,1.38
		c-0.33,0.41-0.76,0.71-1.3,0.91c0.7,0.15,1.25,0.49,1.65,1.03c0.4,0.54,0.61,1.16,0.61,1.88c0,1.06-0.35,1.88-1.04,2.44
		c-0.69,0.56-1.63,0.84-2.81,0.84h-5.59v-1l1.3-0.22v-9.15l-1.3-0.22v-1.01h1.3H94.4z M92.18,78.35h2.63
		c0.56-0.02,1.02-0.18,1.37-0.5c0.35-0.32,0.52-0.76,0.52-1.32c0-0.63-0.2-1.1-0.59-1.41c-0.39-0.31-0.96-0.47-1.71-0.47h-2.22
		V78.35z M92.18,79.58v4.22h2.71c0.72,0,1.28-0.18,1.67-0.53c0.4-0.35,0.59-0.85,0.59-1.5c0-0.68-0.17-1.22-0.5-1.6
		c-0.33-0.39-0.84-0.58-1.53-0.58H92.18z"/>
	<path class="st0" d="M100.19,84.02l1.3-0.22v-6.17l-1.3-0.22v-1.01h2.87v7.41l1.3,0.22v1h-4.17V84.02z M103.06,74.18h-1.57v-1.6
		h1.57V74.18z"/>
	<path class="st0" d="M105.56,80.87c0-1.39,0.3-2.51,0.91-3.36c0.61-0.85,1.44-1.28,2.51-1.28c0.54,0,1.02,0.11,1.43,0.32
		c0.41,0.21,0.75,0.52,1.03,0.93l0.14-1.09h1.33v8.52c0,1.12-0.31,2-0.93,2.64c-0.62,0.64-1.51,0.96-2.66,0.96
		c-0.41,0-0.86-0.06-1.35-0.17c-0.48-0.11-0.91-0.27-1.28-0.47l0.41-1.22c0.29,0.15,0.64,0.28,1.04,0.38
		c0.4,0.1,0.79,0.15,1.17,0.15c0.7,0,1.22-0.2,1.54-0.59s0.49-0.96,0.49-1.68v-0.82c-0.28,0.36-0.62,0.64-1.01,0.82
		c-0.39,0.19-0.85,0.28-1.36,0.28c-1.06,0-1.89-0.38-2.5-1.15c-0.61-0.77-0.91-1.77-0.91-3.01V80.87z M107.14,81.04
		c0,0.87,0.18,1.56,0.55,2.09s0.92,0.79,1.68,0.79c0.47,0,0.87-0.11,1.19-0.32s0.58-0.52,0.79-0.91v-3.97
		c-0.2-0.37-0.47-0.66-0.79-0.87c-0.33-0.22-0.72-0.32-1.17-0.32c-0.75,0-1.31,0.31-1.68,0.94c-0.37,0.63-0.56,1.43-0.56,2.42V81.04
		z"/>
	<path class="st0" d="M123.59,73.41c1.52,0,2.74,0.47,3.66,1.4s1.38,2.14,1.38,3.62v1.59c0,1.48-0.46,2.69-1.38,3.62
		s-2.14,1.39-3.66,1.39h-4.87v-1l1.3-0.22v-9.15l-1.3-0.22v-1.01h1.3H123.59z M121.6,74.65v9.15h1.99c1.08,0,1.92-0.35,2.54-1.06
		c0.62-0.71,0.93-1.61,0.93-2.72v-1.6c0-1.1-0.31-2-0.93-2.71s-1.47-1.06-2.54-1.06H121.6z"/>
	<path class="st0" d="M135.82,85.03c-0.05-0.23-0.08-0.44-0.11-0.63c-0.03-0.19-0.04-0.37-0.06-0.56c-0.3,0.39-0.68,0.71-1.14,0.97
		c-0.45,0.26-0.94,0.39-1.46,0.39c-0.9,0-1.58-0.22-2.05-0.66c-0.47-0.44-0.7-1.06-0.7-1.86c0-0.82,0.33-1.45,0.99-1.9
		c0.66-0.44,1.57-0.67,2.72-0.67h1.62v-1.01c0-0.51-0.16-0.91-0.48-1.2c-0.32-0.3-0.76-0.44-1.33-0.44c-0.39,0-0.74,0.05-1.04,0.15
		s-0.54,0.24-0.73,0.42l-0.17,0.91h-1.21v-1.68c0.39-0.31,0.87-0.57,1.43-0.75c0.56-0.19,1.17-0.28,1.82-0.28
		c0.98,0,1.77,0.25,2.38,0.75s0.91,1.22,0.91,2.15v4.16c0,0.11,0,0.22,0,0.33c0,0.11,0.01,0.21,0.02,0.32l0.64,0.09v1H135.82z
		 M133.29,83.88c0.52,0,1-0.12,1.43-0.38c0.43-0.25,0.74-0.55,0.92-0.9v-1.42h-1.67c-0.64,0-1.15,0.15-1.53,0.45
		s-0.56,0.66-0.56,1.09c0,0.38,0.12,0.67,0.35,0.87C132.47,83.78,132.82,83.88,133.29,83.88z"/>
	<path class="st0" d="M141.94,74.31v2.08h1.63v1.17h-1.63v5.24c0,0.4,0.08,0.69,0.25,0.85s0.39,0.25,0.67,0.25
		c0.14,0,0.29-0.01,0.47-0.04c0.17-0.02,0.32-0.05,0.43-0.08l0.22,1.08c-0.15,0.1-0.37,0.17-0.65,0.24
		c-0.29,0.06-0.57,0.09-0.86,0.09c-0.64,0-1.15-0.19-1.52-0.58c-0.38-0.39-0.57-0.99-0.57-1.82v-5.24H139v-1.17h1.37v-2.08H141.94z"
		/>
	<path class="st0" d="M150.81,85.03c-0.05-0.23-0.08-0.44-0.11-0.63c-0.03-0.19-0.05-0.37-0.06-0.56c-0.3,0.39-0.68,0.71-1.14,0.97
		c-0.46,0.26-0.94,0.39-1.46,0.39c-0.9,0-1.58-0.22-2.05-0.66c-0.47-0.44-0.7-1.06-0.7-1.86c0-0.82,0.33-1.45,0.99-1.9
		c0.66-0.44,1.57-0.67,2.73-0.67h1.62v-1.01c0-0.51-0.16-0.91-0.48-1.2c-0.32-0.3-0.76-0.44-1.33-0.44c-0.39,0-0.74,0.05-1.04,0.15
		s-0.54,0.24-0.73,0.42l-0.17,0.91h-1.21v-1.68c0.39-0.31,0.87-0.57,1.43-0.75c0.56-0.19,1.17-0.28,1.82-0.28
		c0.98,0,1.77,0.25,2.38,0.75c0.61,0.5,0.91,1.22,0.91,2.15v4.16c0,0.11,0,0.22,0,0.33c0,0.11,0.01,0.21,0.02,0.32l0.64,0.09v1
		H150.81z M148.28,83.88c0.52,0,1-0.12,1.43-0.38c0.43-0.25,0.74-0.55,0.93-0.9v-1.42h-1.68c-0.64,0-1.15,0.15-1.53,0.45
		s-0.56,0.66-0.56,1.09c0,0.38,0.12,0.67,0.35,0.87C147.45,83.78,147.81,83.88,148.28,83.88z"/>
	<path class="st0" d="M163.87,85.03c-0.05-0.23-0.08-0.44-0.11-0.63c-0.03-0.19-0.05-0.37-0.06-0.56c-0.3,0.39-0.68,0.71-1.14,0.97
		c-0.46,0.26-0.94,0.39-1.46,0.39c-0.9,0-1.58-0.22-2.05-0.66c-0.47-0.44-0.7-1.06-0.7-1.86c0-0.82,0.33-1.45,0.99-1.9
		c0.66-0.44,1.57-0.67,2.73-0.67h1.62v-1.01c0-0.51-0.16-0.91-0.48-1.2c-0.32-0.3-0.76-0.44-1.33-0.44c-0.39,0-0.74,0.05-1.04,0.15
		s-0.54,0.24-0.73,0.42l-0.17,0.91h-1.21v-1.68c0.39-0.31,0.87-0.57,1.43-0.75c0.56-0.19,1.17-0.28,1.82-0.28
		c0.98,0,1.77,0.25,2.38,0.75c0.61,0.5,0.91,1.22,0.91,2.15v4.16c0,0.11,0,0.22,0,0.33c0,0.11,0.01,0.21,0.02,0.32l0.64,0.09v1
		H163.87z M161.34,83.88c0.52,0,1-0.12,1.43-0.38c0.43-0.25,0.74-0.55,0.93-0.9v-1.42h-1.68c-0.64,0-1.15,0.15-1.53,0.45
		s-0.56,0.66-0.56,1.09c0,0.38,0.12,0.67,0.35,0.87C160.51,83.78,160.87,83.88,161.34,83.88z"/>
	<path class="st0" d="M167.01,84.02l1.3-0.22v-6.17l-1.3-0.22v-1.01h2.7l0.11,1.29c0.29-0.46,0.65-0.81,1.08-1.07
		s0.93-0.38,1.48-0.38c0.93,0,1.65,0.27,2.16,0.82c0.51,0.55,0.77,1.39,0.77,2.53v4.22l1.3,0.22v1h-4.17v-1l1.3-0.22v-4.19
		c0-0.76-0.15-1.3-0.45-1.62c-0.3-0.32-0.76-0.48-1.38-0.48c-0.45,0-0.85,0.11-1.2,0.33c-0.35,0.22-0.63,0.52-0.83,0.89v5.07
		l1.3,0.22v1h-4.17V84.02z"/>
	<path class="st0" d="M183.49,84c-0.28,0.39-0.63,0.69-1.03,0.89c-0.41,0.2-0.88,0.3-1.42,0.3c-1.05,0-1.88-0.38-2.47-1.15
		c-0.59-0.76-0.89-1.77-0.89-3.01v-0.17c0-1.39,0.3-2.51,0.89-3.36c0.59-0.85,1.42-1.28,2.49-1.28c0.51,0,0.96,0.09,1.35,0.28
		c0.39,0.19,0.73,0.46,1,0.82v-3.52l-1.3-0.22v-1.01h1.3h1.57V83.8l1.3,0.22v1h-2.67L183.49,84z M179.26,81.04
		c0,0.87,0.18,1.56,0.53,2.09s0.91,0.79,1.65,0.79c0.47,0,0.86-0.11,1.18-0.32c0.32-0.21,0.58-0.51,0.79-0.9v-4.01
		c-0.2-0.36-0.46-0.65-0.79-0.86s-0.71-0.32-1.17-0.32c-0.75,0-1.3,0.31-1.66,0.93c-0.36,0.62-0.54,1.43-0.54,2.43V81.04z"/>
	<path class="st0" d="M201.75,79.31c0,1.03-0.19,1.97-0.58,2.82c-0.38,0.85-0.92,1.54-1.6,2.06l2.35,1.66l-1.08,0.96l-2.64-1.88
		c-0.27,0.08-0.54,0.15-0.82,0.2c-0.28,0.05-0.57,0.07-0.86,0.07c-1.5,0-2.72-0.56-3.66-1.68s-1.4-2.52-1.4-4.21v-0.17
		c0-1.69,0.47-3.09,1.4-4.21c0.94-1.12,2.16-1.68,3.66-1.68c1.54,0,2.8,0.56,3.77,1.68c0.97,1.12,1.46,2.53,1.46,4.21V79.31z
		 M200.18,79.12c0-1.35-0.32-2.45-0.97-3.31c-0.65-0.85-1.54-1.28-2.68-1.28c-1.1,0-1.95,0.43-2.57,1.29
		c-0.61,0.86-0.92,1.96-0.92,3.3v0.18c0,1.36,0.31,2.47,0.92,3.32c0.62,0.85,1.47,1.28,2.57,1.28c1.16,0,2.06-0.43,2.7-1.28
		c0.64-0.85,0.96-1.96,0.96-3.33V79.12z"/>
	<path class="st0" d="M209.26,83.75c-0.27,0.46-0.62,0.82-1.05,1.07s-0.92,0.38-1.48,0.38c-0.94,0-1.67-0.3-2.19-0.9
		c-0.53-0.6-0.79-1.54-0.79-2.81v-3.85l-0.99-0.22v-1.01h0.99h1.57v5.11c0,0.92,0.14,1.55,0.41,1.9c0.27,0.35,0.69,0.52,1.27,0.52
		c0.56,0,1.02-0.11,1.38-0.34c0.36-0.23,0.64-0.55,0.83-0.96v-4.99l-1.16-0.22v-1.01h1.16h1.57v7.41l0.99,0.22v1h-2.4L209.26,83.75z
		"/>
	<path class="st0" d="M218.64,85.03c-0.05-0.23-0.08-0.44-0.11-0.63c-0.03-0.19-0.05-0.37-0.06-0.56c-0.3,0.39-0.68,0.71-1.14,0.97
		c-0.46,0.26-0.94,0.39-1.46,0.39c-0.9,0-1.58-0.22-2.05-0.66c-0.47-0.44-0.7-1.06-0.7-1.86c0-0.82,0.33-1.45,0.99-1.9
		c0.66-0.44,1.57-0.67,2.73-0.67h1.62v-1.01c0-0.51-0.16-0.91-0.48-1.2c-0.32-0.3-0.76-0.44-1.33-0.44c-0.39,0-0.74,0.05-1.04,0.15
		s-0.54,0.24-0.73,0.42l-0.17,0.91h-1.21v-1.68c0.39-0.31,0.87-0.57,1.43-0.75c0.56-0.19,1.17-0.28,1.82-0.28
		c0.98,0,1.77,0.25,2.38,0.75c0.61,0.5,0.91,1.22,0.91,2.15v4.16c0,0.11,0,0.22,0,0.33c0,0.11,0.01,0.21,0.02,0.32l0.64,0.09v1
		H218.64z M216.11,83.88c0.52,0,1-0.12,1.43-0.38c0.43-0.25,0.74-0.55,0.93-0.9v-1.42h-1.68c-0.64,0-1.15,0.15-1.53,0.45
		s-0.56,0.66-0.56,1.09c0,0.38,0.12,0.67,0.35,0.87C215.29,83.78,215.64,83.88,216.11,83.88z"/>
	<path class="st0" d="M221.78,84.02l1.3-0.22v-6.17l-1.3-0.22v-1.01h2.7l0.11,1.29c0.29-0.46,0.65-0.81,1.08-1.07
		s0.93-0.38,1.48-0.38c0.93,0,1.65,0.27,2.16,0.82c0.51,0.55,0.77,1.39,0.77,2.53v4.22l1.3,0.22v1h-4.17v-1l1.3-0.22v-4.19
		c0-0.76-0.15-1.3-0.45-1.62c-0.3-0.32-0.76-0.48-1.38-0.48c-0.45,0-0.85,0.11-1.2,0.33c-0.35,0.22-0.63,0.52-0.83,0.89v5.07
		l1.3,0.22v1h-4.17V84.02z"/>
	<path class="st0" d="M235.27,74.31v2.08h1.64v1.17h-1.64v5.24c0,0.4,0.08,0.69,0.25,0.85c0.17,0.17,0.39,0.25,0.67,0.25
		c0.14,0,0.29-0.01,0.47-0.04c0.17-0.02,0.32-0.05,0.43-0.08l0.22,1.08c-0.15,0.1-0.37,0.17-0.65,0.24
		c-0.29,0.06-0.57,0.09-0.86,0.09c-0.64,0-1.15-0.19-1.52-0.58c-0.38-0.39-0.57-0.99-0.57-1.82v-5.24h-1.36v-1.17h1.36v-2.08H235.27
		z"/>
	<path class="st0" d="M244.69,83.75c-0.27,0.46-0.62,0.82-1.05,1.07c-0.43,0.25-0.92,0.38-1.48,0.38c-0.94,0-1.67-0.3-2.19-0.9
		s-0.79-1.54-0.79-2.81v-3.85l-0.99-0.22v-1.01h0.99h1.57v5.11c0,0.92,0.13,1.55,0.41,1.9c0.27,0.35,0.69,0.52,1.27,0.52
		c0.56,0,1.02-0.11,1.38-0.34c0.36-0.23,0.64-0.55,0.83-0.96v-4.99l-1.16-0.22v-1.01h1.16h1.57v7.41l0.99,0.22v1h-2.4L244.69,83.75z
		"/>
	<path class="st0" d="M248.13,84.02l1.3-0.22v-6.17l-1.3-0.22v-1.01h2.71l0.1,1.12c0.28-0.41,0.63-0.73,1.07-0.95
		s0.94-0.33,1.52-0.33c0.57,0,1.07,0.13,1.48,0.4c0.41,0.27,0.72,0.67,0.93,1.2c0.27-0.49,0.63-0.88,1.08-1.17s0.97-0.43,1.56-0.43
		c0.88,0,1.58,0.3,2.09,0.91c0.51,0.6,0.77,1.51,0.77,2.73v3.93l1.3,0.22v1h-4.18v-1l1.3-0.22v-3.95c0-0.85-0.15-1.45-0.44-1.81
		c-0.29-0.35-0.73-0.53-1.3-0.53c-0.55,0-0.99,0.19-1.32,0.58c-0.33,0.39-0.53,0.87-0.58,1.46v4.25l1.3,0.22v1h-4.17v-1l1.3-0.22
		v-3.95c0-0.81-0.15-1.4-0.45-1.78s-0.74-0.56-1.3-0.56c-0.48,0-0.87,0.1-1.18,0.3s-0.54,0.47-0.71,0.83v5.16l1.3,0.22v1h-4.17
		V84.02z"/>
	<path class="st0" d="M276.8,76.98h-1.11l-0.29-1.64c-0.26-0.25-0.57-0.45-0.94-0.61c-0.37-0.16-0.82-0.24-1.33-0.24
		c-1.21,0-2.14,0.44-2.79,1.31c-0.65,0.88-0.97,1.99-0.97,3.33v0.18c0,1.35,0.32,2.46,0.95,3.34c0.63,0.88,1.52,1.32,2.64,1.32
		c0.53,0,1.01-0.08,1.44-0.25c0.43-0.16,0.76-0.37,1-0.61l0.29-1.64h1.11v2.07c-0.33,0.43-0.84,0.82-1.51,1.15s-1.45,0.51-2.33,0.51
		c-1.51,0-2.75-0.56-3.72-1.68c-0.97-1.12-1.45-2.52-1.45-4.21v-0.17c0-1.7,0.48-3.11,1.43-4.23c0.95-1.11,2.2-1.67,3.74-1.67
		c0.88,0,1.66,0.17,2.33,0.51c0.67,0.34,1.17,0.73,1.51,1.15V76.98z"/>
	<path class="st0" d="M278.49,80.63c0-1.28,0.35-2.33,1.04-3.16c0.69-0.83,1.63-1.24,2.82-1.24c1.19,0,2.13,0.41,2.83,1.24
		c0.69,0.83,1.04,1.88,1.04,3.16v0.18c0,1.29-0.35,2.34-1.04,3.16c-0.69,0.82-1.63,1.23-2.82,1.23c-1.2,0-2.14-0.41-2.83-1.23
		s-1.04-1.87-1.04-3.16V80.63z M280.06,80.81c0,0.92,0.19,1.67,0.58,2.27c0.39,0.6,0.96,0.89,1.72,0.89c0.74,0,1.31-0.3,1.7-0.89
		c0.39-0.6,0.58-1.35,0.58-2.27v-0.18c0-0.9-0.19-1.66-0.58-2.26s-0.96-0.9-1.72-0.9s-1.33,0.3-1.71,0.9s-0.57,1.35-0.57,2.26V80.81
		z"/>
	<path class="st0" d="M287.34,84.02l1.3-0.22v-6.17l-1.3-0.22v-1.01h2.71l0.1,1.12c0.28-0.41,0.63-0.73,1.07-0.95
		c0.44-0.22,0.94-0.33,1.52-0.33s1.07,0.13,1.48,0.4c0.41,0.27,0.72,0.67,0.93,1.2c0.27-0.49,0.63-0.88,1.08-1.17
		c0.45-0.29,0.97-0.43,1.56-0.43c0.88,0,1.58,0.3,2.09,0.91c0.51,0.6,0.77,1.51,0.77,2.73v3.93l1.3,0.22v1h-4.18v-1l1.3-0.22v-3.95
		c0-0.85-0.15-1.45-0.44-1.81s-0.73-0.53-1.3-0.53c-0.55,0-0.99,0.19-1.32,0.58c-0.33,0.39-0.53,0.87-0.58,1.46v4.25l1.3,0.22v1
		h-4.17v-1l1.3-0.22v-3.95c0-0.81-0.15-1.4-0.45-1.78s-0.74-0.56-1.3-0.56c-0.48,0-0.87,0.1-1.18,0.3c-0.31,0.2-0.55,0.47-0.71,0.83
		v5.16l1.3,0.22v1h-4.17V84.02z"/>
	<path class="st0" d="M302.9,87.33l1.3-0.22v-9.48l-1.3-0.22v-1.01h2.65l0.14,1.05c0.29-0.39,0.64-0.69,1.05-0.9
		s0.89-0.31,1.43-0.31c1.07,0,1.9,0.42,2.49,1.27s0.89,1.97,0.89,3.36v0.17c0,1.24-0.3,2.25-0.89,3.01
		c-0.6,0.76-1.42,1.15-2.47,1.15c-0.53,0-1-0.09-1.4-0.27c-0.4-0.18-0.74-0.44-1.03-0.79v2.98l1.3,0.22v1.01h-4.17V87.33z
		 M309.98,80.87c0-0.98-0.19-1.79-0.58-2.42c-0.38-0.63-0.95-0.94-1.71-0.94c-0.45,0-0.83,0.1-1.15,0.3
		c-0.32,0.2-0.58,0.48-0.77,0.83v4.21c0.2,0.36,0.45,0.63,0.77,0.83c0.32,0.19,0.71,0.29,1.17,0.29c0.75,0,1.31-0.27,1.69-0.81
		c0.38-0.54,0.58-1.25,0.58-2.11V80.87z"/>
	<path class="st0" d="M319.16,83.75c-0.27,0.46-0.62,0.82-1.05,1.07c-0.43,0.25-0.92,0.38-1.48,0.38c-0.94,0-1.67-0.3-2.19-0.9
		s-0.79-1.54-0.79-2.81v-3.85l-0.99-0.22v-1.01h0.99h1.57v5.11c0,0.92,0.13,1.55,0.41,1.9c0.27,0.35,0.69,0.52,1.27,0.52
		c0.56,0,1.02-0.11,1.38-0.34c0.36-0.23,0.64-0.55,0.83-0.96v-4.99l-1.16-0.22v-1.01h1.16h1.57v7.41l0.99,0.22v1h-2.4L319.16,83.75z
		"/>
	<path class="st0" d="M325.66,74.31v2.08h1.63v1.17h-1.63v5.24c0,0.4,0.08,0.69,0.25,0.85c0.17,0.17,0.39,0.25,0.67,0.25
		c0.14,0,0.29-0.01,0.47-0.04c0.17-0.02,0.32-0.05,0.43-0.08l0.22,1.08c-0.15,0.1-0.37,0.17-0.65,0.24
		c-0.29,0.06-0.58,0.09-0.86,0.09c-0.64,0-1.15-0.19-1.52-0.58s-0.57-0.99-0.57-1.82v-5.24h-1.37v-1.17h1.37v-2.08H325.66z"/>
	<path class="st0" d="M328.89,84.02l1.3-0.22v-6.17l-1.3-0.22v-1.01h2.87v7.41l1.3,0.22v1h-4.17V84.02z M331.77,74.18h-1.57v-1.6
		h1.57V74.18z"/>
	<path class="st0" d="M334.03,84.02l1.3-0.22v-6.17l-1.3-0.22v-1.01h2.71l0.11,1.29c0.29-0.46,0.65-0.81,1.08-1.07
		s0.93-0.38,1.48-0.38c0.93,0,1.65,0.27,2.16,0.82c0.51,0.55,0.77,1.39,0.77,2.53v4.22l1.3,0.22v1h-4.17v-1l1.3-0.22v-4.19
		c0-0.76-0.15-1.3-0.45-1.62c-0.3-0.32-0.76-0.48-1.38-0.48c-0.45,0-0.85,0.11-1.2,0.33c-0.35,0.22-0.63,0.52-0.83,0.89v5.07
		l1.3,0.22v1h-4.17V84.02z"/>
	<path class="st0" d="M344.71,80.87c0-1.39,0.3-2.51,0.91-3.36c0.61-0.85,1.44-1.28,2.51-1.28c0.54,0,1.02,0.11,1.43,0.32
		c0.41,0.21,0.75,0.52,1.03,0.93l0.14-1.09h1.32v8.52c0,1.12-0.31,2-0.93,2.64c-0.62,0.64-1.51,0.96-2.66,0.96
		c-0.41,0-0.86-0.06-1.35-0.17c-0.48-0.11-0.91-0.27-1.28-0.47l0.41-1.22c0.29,0.15,0.64,0.28,1.04,0.38
		c0.4,0.1,0.79,0.15,1.16,0.15c0.7,0,1.22-0.2,1.54-0.59c0.33-0.39,0.49-0.96,0.49-1.68v-0.82c-0.28,0.36-0.62,0.64-1.01,0.82
		c-0.39,0.19-0.85,0.28-1.36,0.28c-1.06,0-1.89-0.38-2.5-1.15c-0.61-0.77-0.91-1.77-0.91-3.01V80.87z M346.28,81.04
		c0,0.87,0.18,1.56,0.55,2.09s0.93,0.79,1.68,0.79c0.47,0,0.87-0.11,1.19-0.32c0.32-0.22,0.58-0.52,0.79-0.91v-3.97
		c-0.2-0.37-0.47-0.66-0.79-0.87c-0.32-0.22-0.71-0.32-1.17-0.32c-0.75,0-1.31,0.31-1.68,0.94c-0.37,0.63-0.56,1.43-0.56,2.42V81.04
		z"/>
</g>
<polygon class="st2" points="6.11,74.92 20.58,46.76 42.85,42.91 28.21,68.77 "/>
<polyline class="st2" points="4.77,9.73 37.48,86.53 59.69,78.23 26.85,9.48 4.77,9.73 26.85,9.48 "/>
<polyline class="st3" points="20.58,46.76 37.48,86.53 59.69,78.23 42.85,42.91 42.85,42.91 42.85,42.91 "/>
<polygon class="st4" points="61.53,9.9 39.34,10.24 20.58,46.76 42.85,42.91 "/>
<path class="st1" d="M51.96,44.32c2.83,5.94,5.66,11.88,8.49,17.82c0.38,0.79,1.18,1.3,2.06,1.3c4.09,0,8.17,0,12.26,0
	c0,2.03,0,4.05,0,6.08c-4.09,0-8.17,0-12.26,0c-3.22,0-6.16-1.85-7.54-4.76C51.52,57.5,48.06,50.25,44.61,43
	c5.44-9.62,10.89-19.24,16.33-28.86c1.48-2.62,4.26-4.24,7.27-4.24c2.19,0,4.38,0,6.57,0c0,2.03,0,4.05,0,6.08
	c-2.19,0-4.38,0-6.57,0c-0.82,0-1.58,0.44-1.98,1.16c-4.73,8.36-9.46,16.72-14.19,25.08C51.67,42.86,51.64,43.64,51.96,44.32z"/>
</svg>
